<?xml version="1.0" encoding="UTF-8"?>
<svg xmlns="http://www.w3.org/2000/svg" xmlns:xlink="http://www.w3.org/1999/xlink" width="16px" height="16px" viewBox="0 0 16 16" version="1.1">
<g id="surface1">
<path style="fill-rule:evenodd;fill:rgb(60%,47.058824%,26.27451%);fill-opacity:1;stroke-width:8;stroke-linecap:round;stroke-linejoin:round;stroke:rgb(0%,0%,0%);stroke-opacity:1;stroke-miterlimit:10;" d="M 105.981445 70.019531 C 105.981445 87.670898 91.699219 102.026367 73.974609 102.026367 C 56.323242 102.026367 41.967773 87.670898 41.967773 70.019531 C 41.967773 52.294922 56.323242 38.012695 73.974609 38.012695 C 91.699219 38.012695 105.981445 52.294922 105.981445 70.019531 Z M 105.981445 70.019531 " transform="matrix(0.0533333,0,0,0.0533333,0,0)"/>
<path style="fill-rule:evenodd;fill:rgb(60%,47.058824%,26.27451%);fill-opacity:1;stroke-width:8;stroke-linecap:round;stroke-linejoin:round;stroke:rgb(0%,0%,0%);stroke-opacity:1;stroke-miterlimit:10;" d="M 266.015625 70.019531 C 266.015625 87.670898 251.660156 102.026367 234.008789 102.026367 C 216.357422 102.026367 202.001953 87.670898 202.001953 70.019531 C 202.001953 52.294922 216.357422 38.012695 234.008789 38.012695 C 251.660156 38.012695 266.015625 52.294922 266.015625 70.019531 Z M 266.015625 70.019531 " transform="matrix(0.0533333,0,0,0.0533333,0,0)"/>
<path style="fill-rule:evenodd;fill:rgb(60%,47.058824%,26.27451%);fill-opacity:1;stroke-width:8;stroke-linecap:round;stroke-linejoin:round;stroke:rgb(0%,0%,0%);stroke-opacity:1;stroke-miterlimit:10;" d="M 154.02832 269.970703 C 202.587891 269.970703 241.992188 174.609375 241.992188 125.976562 C 241.992188 77.416992 202.587891 38.012695 154.02832 38.012695 C 105.395508 38.012695 65.991211 77.416992 65.991211 125.976562 C 65.991211 174.609375 105.395508 269.970703 154.02832 269.970703 Z M 154.02832 269.970703 " transform="matrix(0.0533333,0,0,0.0533333,0,0)"/>
<path style="fill-rule:evenodd;fill:rgb(46.666667%,46.666667%,46.666667%);fill-opacity:1;stroke-width:8;stroke-linecap:round;stroke-linejoin:round;stroke:rgb(0%,0%,0%);stroke-opacity:1;stroke-miterlimit:10;" d="M 154.02832 105.981445 C 146.704102 96.313477 135.058594 90.014648 122.021484 90.014648 C 99.902344 90.014648 82.03125 107.885742 82.03125 130.004883 C 82.03125 152.124023 99.902344 169.995117 122.021484 169.995117 C 135.058594 169.995117 146.704102 163.696289 154.02832 154.02832 C 161.279297 163.696289 172.924805 169.995117 186.035156 169.995117 C 208.081055 169.995117 226.025391 152.124023 226.025391 130.004883 C 226.025391 107.885742 208.081055 90.014648 186.035156 90.014648 C 172.924805 90.014648 161.279297 96.313477 154.02832 105.981445 Z M 154.02832 105.981445 " transform="matrix(0.0533333,0,0,0.0533333,0,0)"/>
<path style="fill-rule:evenodd;fill:rgb(86.666667%,86.666667%,86.666667%);fill-opacity:1;stroke-width:7.7333;stroke-linecap:round;stroke-linejoin:round;stroke:rgb(0%,0%,0%);stroke-opacity:1;stroke-miterlimit:10;" d="M 154.02832 246.020508 C 176.074219 246.020508 194.018555 228.076172 194.018555 206.030273 C 194.018555 183.911133 176.074219 142.016602 154.02832 142.016602 C 131.90918 142.016602 113.964844 183.911133 113.964844 206.030273 C 113.964844 228.076172 131.90918 246.020508 154.02832 246.020508 Z M 154.02832 246.020508 " transform="matrix(0.0533333,0,0,0.0533333,0,0)"/>
<path style="fill:none;stroke-width:8;stroke-linecap:round;stroke-linejoin:round;stroke:rgb(0%,0%,0%);stroke-opacity:1;stroke-miterlimit:10;" d="M 113.964844 206.030273 C 126.123047 211.083984 139.819336 214.013672 154.394531 214.013672 C 168.676758 214.013672 182.080078 211.230469 194.018555 206.323242 " transform="matrix(0.0533333,0,0,0.0533333,0,0)"/>
<path style="fill-rule:evenodd;fill:rgb(60%,47.058824%,26.27451%);fill-opacity:1;stroke-width:8;stroke-linecap:round;stroke-linejoin:round;stroke:rgb(0%,0%,0%);stroke-opacity:1;stroke-miterlimit:10;" d="M 134.033203 123.999023 C 134.033203 129.492188 129.492188 134.033203 123.999023 134.033203 C 118.505859 134.033203 113.964844 129.492188 113.964844 123.999023 C 113.964844 118.505859 118.505859 113.964844 123.999023 113.964844 C 129.492188 113.964844 134.033203 118.505859 134.033203 123.999023 Z M 134.033203 123.999023 " transform="matrix(0.0533333,0,0,0.0533333,0,0)"/>
<path style="fill-rule:evenodd;fill:rgb(60%,47.058824%,26.27451%);fill-opacity:1;stroke-width:8;stroke-linecap:round;stroke-linejoin:round;stroke:rgb(0%,0%,0%);stroke-opacity:1;stroke-miterlimit:10;" d="M 197.973633 123.999023 C 197.973633 129.492188 193.505859 134.033203 188.012695 134.033203 C 182.446289 134.033203 177.978516 129.492188 177.978516 123.999023 C 177.978516 118.505859 182.446289 113.964844 188.012695 113.964844 C 193.505859 113.964844 197.973633 118.505859 197.973633 123.999023 Z M 197.973633 123.999023 " transform="matrix(0.0533333,0,0,0.0533333,0,0)"/>
<path style="fill-rule:evenodd;fill:rgb(34.901961%,34.901961%,34.901961%);fill-opacity:1;stroke-width:8;stroke-linecap:round;stroke-linejoin:round;stroke:rgb(0%,0%,0%);stroke-opacity:1;stroke-miterlimit:10;" d="M 148.901367 160.473633 C 151.68457 157.177734 156.298828 157.177734 159.155273 160.473633 L 172.485352 176.000977 C 175.341797 179.296875 174.023438 182.006836 169.702148 182.006836 L 138.28125 182.006836 C 133.959961 182.006836 132.714844 179.296875 135.498047 176.000977 Z M 148.901367 160.473633 " transform="matrix(0.0533333,0,0,0.0533333,0,0)"/>
</g>
</svg>
